G75*
%MOIN*%
%OFA0B0*%
%FSLAX25Y25*%
%IPPOS*%
%LPD*%
%AMOC8*
5,1,8,0,0,1.08239X$1,22.5*
%
%ADD10C,0.07300*%
%ADD11R,0.07300X0.07300*%
%ADD12C,0.07850*%
%ADD13C,0.06000*%
%ADD14OC8,0.06000*%
%ADD15C,0.06800*%
D10*
X0143500Y0184750D03*
X0143657Y0223500D03*
X0163343Y0223500D03*
X0223657Y0218500D03*
X0243343Y0218500D03*
X0243343Y0278500D03*
X0223657Y0278500D03*
X0073343Y0278500D03*
X0053657Y0278500D03*
X0053657Y0218500D03*
X0073343Y0218500D03*
D11*
X0163500Y0184750D03*
D12*
X0163343Y0249975D02*
X0163343Y0257025D01*
X0143657Y0257025D02*
X0143657Y0249975D01*
X0093500Y0264975D02*
X0093500Y0272025D01*
X0093500Y0232025D02*
X0093500Y0224975D01*
X0143657Y0037025D02*
X0143657Y0029975D01*
X0163343Y0029975D02*
X0163343Y0037025D01*
X0263500Y0224975D02*
X0263500Y0232025D01*
X0263500Y0264975D02*
X0263500Y0272025D01*
D13*
X0263500Y0288300D02*
X0263500Y0293500D01*
X0253500Y0293500D02*
X0253500Y0288300D01*
X0243500Y0288300D02*
X0243500Y0293500D01*
X0218500Y0293500D02*
X0218500Y0288300D01*
X0208500Y0288300D02*
X0208500Y0293500D01*
X0198500Y0293500D02*
X0198500Y0288300D01*
X0188500Y0288300D02*
X0188500Y0293500D01*
X0188500Y0323500D02*
X0188500Y0328700D01*
X0198500Y0328700D02*
X0198500Y0323500D01*
X0208500Y0323500D02*
X0208500Y0328700D01*
X0218500Y0328700D02*
X0218500Y0323500D01*
X0243500Y0323500D02*
X0243500Y0328700D01*
X0253500Y0328700D02*
X0253500Y0323500D01*
X0263500Y0323500D02*
X0263500Y0328700D01*
X0273500Y0328700D02*
X0273500Y0323500D01*
X0273500Y0293500D02*
X0273500Y0288300D01*
X0243500Y0266100D02*
X0243500Y0260900D01*
X0233500Y0260900D02*
X0233500Y0266100D01*
X0223500Y0266100D02*
X0223500Y0260900D01*
X0213500Y0260900D02*
X0213500Y0266100D01*
X0213500Y0236100D02*
X0213500Y0230900D01*
X0223500Y0230900D02*
X0223500Y0236100D01*
X0233500Y0236100D02*
X0233500Y0230900D01*
X0243500Y0230900D02*
X0243500Y0236100D01*
X0073500Y0236100D02*
X0073500Y0230900D01*
X0063500Y0230900D02*
X0063500Y0236100D01*
X0053500Y0236100D02*
X0053500Y0230900D01*
X0043500Y0230900D02*
X0043500Y0236100D01*
X0043500Y0260900D02*
X0043500Y0266100D01*
X0053500Y0266100D02*
X0053500Y0260900D01*
X0063500Y0260900D02*
X0063500Y0266100D01*
X0073500Y0266100D02*
X0073500Y0260900D01*
D14*
X0053500Y0058500D03*
X0063500Y0088500D03*
X0093500Y0058500D03*
X0093500Y0128500D03*
X0063500Y0158500D03*
X0053500Y0128500D03*
X0023500Y0088500D03*
X0063500Y0198500D03*
X0058500Y0298500D03*
X0058500Y0308500D03*
X0058500Y0318500D03*
X0098500Y0318500D03*
X0098500Y0308500D03*
X0098500Y0298500D03*
X0213500Y0198500D03*
X0213500Y0158500D03*
X0213500Y0128500D03*
X0243500Y0088500D03*
X0253500Y0058500D03*
X0283500Y0088500D03*
X0253500Y0128500D03*
X0213500Y0058500D03*
D15*
X0223500Y0070500D02*
X0223500Y0076500D01*
X0233500Y0076500D02*
X0233500Y0070500D01*
X0243500Y0070500D02*
X0243500Y0076500D01*
X0243500Y0140500D02*
X0243500Y0146500D01*
X0233500Y0146500D02*
X0233500Y0140500D01*
X0223500Y0140500D02*
X0223500Y0146500D01*
X0083500Y0146500D02*
X0083500Y0140500D01*
X0073500Y0140500D02*
X0073500Y0146500D01*
X0063500Y0146500D02*
X0063500Y0140500D01*
X0063500Y0076500D02*
X0063500Y0070500D01*
X0073500Y0070500D02*
X0073500Y0076500D01*
X0083500Y0076500D02*
X0083500Y0070500D01*
X0044000Y0283500D02*
X0038000Y0283500D01*
X0038000Y0293500D02*
X0044000Y0293500D01*
X0044000Y0303500D02*
X0038000Y0303500D01*
X0038000Y0313500D02*
X0044000Y0313500D01*
X0044000Y0323500D02*
X0038000Y0323500D01*
X0026500Y0323500D02*
X0020500Y0323500D01*
X0020500Y0313500D02*
X0026500Y0313500D01*
X0026500Y0303500D02*
X0020500Y0303500D01*
X0020500Y0293500D02*
X0026500Y0293500D01*
M02*
