G75*
%MOIN*%
%OFA0B0*%
%FSLAX25Y25*%
%IPPOS*%
%LPD*%
%AMOC8*
5,1,8,0,0,1.08239X$1,22.5*
%
%ADD10C,0.00800*%
%ADD11C,0.04600*%
%ADD12C,0.05300*%
%ADD13C,0.06500*%
%ADD14R,0.06500X0.06500*%
%ADD15C,0.07050*%
%ADD16C,0.05200*%
%ADD17OC8,0.05200*%
%ADD18C,0.06000*%
%ADD19C,0.06600*%
%ADD20C,0.10000*%
%ADD21C,0.04000*%
%ADD22C,0.05000*%
D10*
X0013900Y0013900D02*
X0018504Y0013900D01*
X0020039Y0015435D01*
X0020039Y0016969D01*
X0018504Y0018504D01*
X0013900Y0018504D01*
X0013900Y0023108D02*
X0018504Y0023108D01*
X0020039Y0021573D01*
X0020039Y0020039D01*
X0018504Y0018504D01*
X0023108Y0015435D02*
X0024642Y0016969D01*
X0029246Y0016969D01*
X0029246Y0018504D02*
X0029246Y0013900D01*
X0024642Y0013900D01*
X0023108Y0015435D01*
X0024642Y0020039D02*
X0027712Y0020039D01*
X0029246Y0018504D01*
X0032316Y0020039D02*
X0036920Y0020039D01*
X0038454Y0018504D01*
X0038454Y0015435D01*
X0036920Y0013900D01*
X0032316Y0013900D01*
X0032316Y0023108D01*
X0041524Y0020039D02*
X0041524Y0015435D01*
X0043058Y0013900D01*
X0047662Y0013900D01*
X0047662Y0012365D02*
X0046128Y0010831D01*
X0044593Y0010831D01*
X0047662Y0012365D02*
X0047662Y0020039D01*
X0050731Y0023108D02*
X0050731Y0013900D01*
X0053801Y0016969D01*
X0056870Y0013900D01*
X0056870Y0023108D01*
X0061474Y0020039D02*
X0064543Y0020039D01*
X0066078Y0018504D01*
X0066078Y0013900D01*
X0061474Y0013900D01*
X0059939Y0015435D01*
X0061474Y0016969D01*
X0066078Y0016969D01*
X0069147Y0020039D02*
X0072216Y0020039D01*
X0070682Y0021573D02*
X0070682Y0015435D01*
X0072216Y0013900D01*
X0075286Y0015435D02*
X0076820Y0013900D01*
X0081424Y0013900D01*
X0084494Y0013900D02*
X0084494Y0023108D01*
X0086028Y0020039D02*
X0084494Y0018504D01*
X0086028Y0020039D02*
X0089098Y0020039D01*
X0090632Y0018504D01*
X0090632Y0013900D01*
X0081424Y0020039D02*
X0076820Y0020039D01*
X0075286Y0018504D01*
X0075286Y0015435D01*
X0013900Y0013900D02*
X0013900Y0023108D01*
X0198900Y0023108D02*
X0198900Y0013900D01*
X0205039Y0013900D02*
X0205039Y0023108D01*
X0201969Y0020039D01*
X0198900Y0023108D01*
X0208108Y0018504D02*
X0208108Y0015435D01*
X0209642Y0013900D01*
X0212712Y0013900D01*
X0214246Y0015435D01*
X0214246Y0018504D01*
X0212712Y0020039D01*
X0209642Y0020039D01*
X0208108Y0018504D01*
X0217316Y0020039D02*
X0220385Y0020039D01*
X0218850Y0021573D02*
X0218850Y0015435D01*
X0220385Y0013900D01*
X0223454Y0015435D02*
X0224989Y0013900D01*
X0228058Y0013900D01*
X0229593Y0015435D01*
X0229593Y0018504D01*
X0228058Y0020039D01*
X0224989Y0020039D01*
X0223454Y0018504D01*
X0223454Y0015435D01*
X0232662Y0016969D02*
X0235731Y0020039D01*
X0237266Y0020039D01*
X0240335Y0021573D02*
X0240335Y0015435D01*
X0241870Y0013900D01*
X0244939Y0013900D01*
X0246474Y0015435D01*
X0249543Y0015435D02*
X0251078Y0013900D01*
X0254147Y0013900D01*
X0255682Y0015435D01*
X0255682Y0018504D01*
X0254147Y0020039D01*
X0251078Y0020039D01*
X0249543Y0018504D01*
X0249543Y0015435D01*
X0246474Y0021573D02*
X0244939Y0023108D01*
X0241870Y0023108D01*
X0240335Y0021573D01*
X0232662Y0020039D02*
X0232662Y0013900D01*
X0258751Y0013900D02*
X0258751Y0020039D01*
X0263355Y0020039D01*
X0264890Y0018504D01*
X0264890Y0013900D01*
X0269494Y0015435D02*
X0271028Y0013900D01*
X0269494Y0015435D02*
X0269494Y0021573D01*
X0271028Y0020039D02*
X0267959Y0020039D01*
X0274098Y0020039D02*
X0274098Y0013900D01*
X0274098Y0016969D02*
X0277167Y0020039D01*
X0278701Y0020039D01*
X0281771Y0018504D02*
X0281771Y0015435D01*
X0283305Y0013900D01*
X0286375Y0013900D01*
X0287909Y0015435D01*
X0287909Y0018504D01*
X0286375Y0020039D01*
X0283305Y0020039D01*
X0281771Y0018504D01*
X0290979Y0023108D02*
X0292513Y0023108D01*
X0292513Y0013900D01*
X0290979Y0013900D02*
X0294048Y0013900D01*
D11*
X0182739Y0244270D02*
X0182739Y0258148D01*
X0175800Y0251209D02*
X0189679Y0251209D01*
D12*
X0129561Y0251209D02*
X0116150Y0251209D01*
D13*
X0143657Y0223500D03*
X0163343Y0223500D03*
X0143500Y0184750D03*
X0073343Y0218500D03*
X0053657Y0218500D03*
X0053657Y0278500D03*
X0073343Y0278500D03*
X0223657Y0278500D03*
X0243343Y0278500D03*
X0243343Y0218500D03*
X0223657Y0218500D03*
D14*
X0163500Y0184750D03*
D15*
X0163343Y0249975D02*
X0163343Y0257025D01*
X0143657Y0257025D02*
X0143657Y0249975D01*
X0093500Y0264975D02*
X0093500Y0272025D01*
X0093500Y0232025D02*
X0093500Y0224975D01*
X0143657Y0037025D02*
X0143657Y0029975D01*
X0163343Y0029975D02*
X0163343Y0037025D01*
X0263500Y0224975D02*
X0263500Y0232025D01*
X0263500Y0264975D02*
X0263500Y0272025D01*
D16*
X0263500Y0288300D02*
X0263500Y0293500D01*
X0253500Y0293500D02*
X0253500Y0288300D01*
X0243500Y0288300D02*
X0243500Y0293500D01*
X0218500Y0293500D02*
X0218500Y0288300D01*
X0208500Y0288300D02*
X0208500Y0293500D01*
X0198500Y0293500D02*
X0198500Y0288300D01*
X0188500Y0288300D02*
X0188500Y0293500D01*
X0188500Y0323500D02*
X0188500Y0328700D01*
X0198500Y0328700D02*
X0198500Y0323500D01*
X0208500Y0323500D02*
X0208500Y0328700D01*
X0218500Y0328700D02*
X0218500Y0323500D01*
X0243500Y0323500D02*
X0243500Y0328700D01*
X0253500Y0328700D02*
X0253500Y0323500D01*
X0263500Y0323500D02*
X0263500Y0328700D01*
X0273500Y0328700D02*
X0273500Y0323500D01*
X0273500Y0293500D02*
X0273500Y0288300D01*
X0243500Y0266100D02*
X0243500Y0260900D01*
X0233500Y0260900D02*
X0233500Y0266100D01*
X0223500Y0266100D02*
X0223500Y0260900D01*
X0213500Y0260900D02*
X0213500Y0266100D01*
X0213500Y0236100D02*
X0213500Y0230900D01*
X0223500Y0230900D02*
X0223500Y0236100D01*
X0233500Y0236100D02*
X0233500Y0230900D01*
X0243500Y0230900D02*
X0243500Y0236100D01*
X0073500Y0236100D02*
X0073500Y0230900D01*
X0063500Y0230900D02*
X0063500Y0236100D01*
X0053500Y0236100D02*
X0053500Y0230900D01*
X0043500Y0230900D02*
X0043500Y0236100D01*
X0043500Y0260900D02*
X0043500Y0266100D01*
X0053500Y0266100D02*
X0053500Y0260900D01*
X0063500Y0260900D02*
X0063500Y0266100D01*
X0073500Y0266100D02*
X0073500Y0260900D01*
D17*
X0058500Y0298500D03*
X0058500Y0308500D03*
X0058500Y0318500D03*
X0098500Y0318500D03*
X0098500Y0308500D03*
X0098500Y0298500D03*
X0063500Y0198500D03*
X0063500Y0158500D03*
X0053500Y0128500D03*
X0063500Y0088500D03*
X0053500Y0058500D03*
X0023500Y0088500D03*
X0093500Y0058500D03*
X0093500Y0128500D03*
X0213500Y0128500D03*
X0213500Y0158500D03*
X0213500Y0198500D03*
X0253500Y0128500D03*
X0243500Y0088500D03*
X0253500Y0058500D03*
X0283500Y0088500D03*
X0213500Y0058500D03*
D18*
X0223500Y0070500D02*
X0223500Y0076500D01*
X0233500Y0076500D02*
X0233500Y0070500D01*
X0243500Y0070500D02*
X0243500Y0076500D01*
X0243500Y0140500D02*
X0243500Y0146500D01*
X0233500Y0146500D02*
X0233500Y0140500D01*
X0223500Y0140500D02*
X0223500Y0146500D01*
X0083500Y0146500D02*
X0083500Y0140500D01*
X0073500Y0140500D02*
X0073500Y0146500D01*
X0063500Y0146500D02*
X0063500Y0140500D01*
X0063500Y0076500D02*
X0063500Y0070500D01*
X0073500Y0070500D02*
X0073500Y0076500D01*
X0083500Y0076500D02*
X0083500Y0070500D01*
X0044000Y0283500D02*
X0038000Y0283500D01*
X0038000Y0293500D02*
X0044000Y0293500D01*
X0044000Y0303500D02*
X0038000Y0303500D01*
X0038000Y0313500D02*
X0044000Y0313500D01*
X0044000Y0323500D02*
X0038000Y0323500D01*
X0026500Y0323500D02*
X0020500Y0323500D01*
X0020500Y0313500D02*
X0026500Y0313500D01*
X0026500Y0303500D02*
X0020500Y0303500D01*
X0020500Y0293500D02*
X0026500Y0293500D01*
D19*
X0143500Y0223343D02*
X0143657Y0223500D01*
D20*
X0143657Y0253500D01*
D21*
X0158103Y0231342D02*
X0161503Y0232750D01*
X0165182Y0232750D01*
X0168582Y0231342D01*
X0171184Y0228740D01*
X0172593Y0225340D01*
X0172593Y0221660D01*
X0171184Y0218260D01*
X0168582Y0215658D01*
X0165182Y0214250D01*
X0161503Y0214250D01*
X0158103Y0215658D01*
X0155501Y0218260D01*
X0154093Y0221660D01*
X0154093Y0225340D01*
X0155501Y0228740D01*
X0158103Y0231342D01*
X0158280Y0231415D02*
X0108500Y0231415D01*
X0108500Y0233500D02*
X0108500Y0213500D01*
X0081284Y0213500D01*
X0081184Y0213260D01*
X0078582Y0210658D01*
X0075182Y0209250D01*
X0071503Y0209250D01*
X0068103Y0210658D01*
X0065501Y0213260D01*
X0065401Y0213500D01*
X0061599Y0213500D01*
X0061499Y0213260D01*
X0058897Y0210658D01*
X0055497Y0209250D01*
X0051818Y0209250D01*
X0048418Y0210658D01*
X0045816Y0213260D01*
X0045716Y0213500D01*
X0013500Y0213500D01*
X0013500Y0029508D01*
X0019777Y0029508D01*
X0022129Y0028534D01*
X0023664Y0026999D01*
X0024224Y0026439D01*
X0026768Y0026439D01*
X0026890Y0026733D01*
X0028690Y0028534D01*
X0031043Y0029508D01*
X0033589Y0029508D01*
X0035941Y0028534D01*
X0037741Y0026733D01*
X0037863Y0026439D01*
X0038193Y0026439D01*
X0039222Y0026012D01*
X0040251Y0026439D01*
X0042797Y0026439D01*
X0044593Y0025695D01*
X0044934Y0025836D01*
X0045306Y0026733D01*
X0047106Y0028534D01*
X0049458Y0029508D01*
X0052004Y0029508D01*
X0053801Y0028764D01*
X0055597Y0029508D01*
X0058143Y0029508D01*
X0060495Y0028534D01*
X0062296Y0026733D01*
X0062418Y0026439D01*
X0065816Y0026439D01*
X0066297Y0026239D01*
X0067056Y0026999D01*
X0069409Y0027973D01*
X0071955Y0027973D01*
X0074307Y0026999D01*
X0075067Y0026239D01*
X0075547Y0026439D01*
X0078946Y0026439D01*
X0079068Y0026733D01*
X0080868Y0028534D01*
X0083221Y0029508D01*
X0085767Y0029508D01*
X0088119Y0028534D01*
X0089919Y0026733D01*
X0090041Y0026439D01*
X0090371Y0026439D01*
X0092723Y0025464D01*
X0094257Y0023930D01*
X0096058Y0022129D01*
X0097032Y0019777D01*
X0097032Y0013500D01*
X0192500Y0013500D01*
X0192500Y0024381D01*
X0192794Y0025089D01*
X0193474Y0026733D01*
X0195275Y0028534D01*
X0197627Y0029508D01*
X0200173Y0029508D01*
X0200882Y0029214D01*
X0201969Y0028764D01*
X0203766Y0029508D01*
X0206312Y0029508D01*
X0208664Y0028534D01*
X0210464Y0026733D01*
X0210586Y0026439D01*
X0213985Y0026439D01*
X0214466Y0026239D01*
X0215225Y0026999D01*
X0217577Y0027973D01*
X0220123Y0027973D01*
X0222476Y0026999D01*
X0223235Y0026239D01*
X0223716Y0026439D01*
X0229331Y0026439D01*
X0230360Y0026012D01*
X0231389Y0026439D01*
X0233935Y0026439D01*
X0234197Y0026330D01*
X0234458Y0026439D01*
X0236150Y0026439D01*
X0236444Y0026733D01*
X0236444Y0026733D01*
X0238245Y0028534D01*
X0239554Y0029076D01*
X0240597Y0029508D01*
X0246212Y0029508D01*
X0248565Y0028534D01*
X0250365Y0026733D01*
X0250660Y0026439D01*
X0255420Y0026439D01*
X0256449Y0026012D01*
X0257478Y0026439D01*
X0264628Y0026439D01*
X0265109Y0026239D01*
X0265868Y0026999D01*
X0268221Y0027973D01*
X0270767Y0027973D01*
X0273119Y0026999D01*
X0273679Y0026439D01*
X0275371Y0026439D01*
X0275632Y0026330D01*
X0275894Y0026439D01*
X0279974Y0026439D01*
X0281003Y0026012D01*
X0282032Y0026439D01*
X0285431Y0026439D01*
X0285553Y0026733D01*
X0287353Y0028534D01*
X0289706Y0029508D01*
X0293500Y0029508D01*
X0293500Y0213500D01*
X0251284Y0213500D01*
X0251184Y0213260D01*
X0248582Y0210658D01*
X0245182Y0209250D01*
X0241503Y0209250D01*
X0238103Y0210658D01*
X0235501Y0213260D01*
X0235401Y0213500D01*
X0231599Y0213500D01*
X0231499Y0213260D01*
X0228897Y0210658D01*
X0225497Y0209250D01*
X0221818Y0209250D01*
X0218418Y0210658D01*
X0215816Y0213260D01*
X0215716Y0213500D01*
X0198500Y0213500D01*
X0198500Y0233500D01*
X0108500Y0233500D01*
X0108500Y0227417D02*
X0154953Y0227417D01*
X0154093Y0223418D02*
X0108500Y0223418D01*
X0108500Y0219420D02*
X0155021Y0219420D01*
X0158675Y0215421D02*
X0108500Y0215421D01*
X0103500Y0248500D02*
X0068500Y0248500D01*
X0063500Y0253500D01*
X0063500Y0263500D01*
X0058500Y0273262D02*
X0058372Y0273391D01*
X0057662Y0273684D01*
X0057729Y0273733D01*
X0058425Y0274428D01*
X0059003Y0275224D01*
X0059450Y0276101D01*
X0059754Y0277036D01*
X0059907Y0278008D01*
X0059907Y0278500D01*
X0059907Y0278992D01*
X0059754Y0279964D01*
X0059450Y0280899D01*
X0059003Y0281776D01*
X0058425Y0282572D01*
X0057729Y0283267D01*
X0056933Y0283845D01*
X0056057Y0284292D01*
X0055121Y0284596D01*
X0054149Y0284750D01*
X0053658Y0284750D01*
X0053658Y0278500D01*
X0059907Y0278500D01*
X0053658Y0278500D01*
X0053658Y0278500D01*
X0053657Y0278500D01*
X0053657Y0284750D01*
X0053166Y0284750D01*
X0053000Y0284724D01*
X0053000Y0285290D01*
X0051670Y0288500D01*
X0053000Y0291710D01*
X0053000Y0291838D01*
X0054938Y0289900D01*
X0062062Y0289900D01*
X0067100Y0294938D01*
X0067100Y0302062D01*
X0065662Y0303500D01*
X0067100Y0304938D01*
X0067100Y0312062D01*
X0065662Y0313500D01*
X0067100Y0314938D01*
X0067100Y0322062D01*
X0062062Y0327100D01*
X0054938Y0327100D01*
X0053000Y0325162D01*
X0053000Y0325290D01*
X0051630Y0328598D01*
X0049098Y0331130D01*
X0045790Y0332500D01*
X0036210Y0332500D01*
X0032902Y0331130D01*
X0032250Y0330478D01*
X0031598Y0331130D01*
X0028290Y0332500D01*
X0018710Y0332500D01*
X0015402Y0331130D01*
X0013500Y0329228D01*
X0013500Y0338500D01*
X0293500Y0338500D01*
X0293500Y0213500D01*
X0251284Y0213500D01*
X0252593Y0216660D01*
X0252593Y0220340D01*
X0251184Y0223740D01*
X0249843Y0225081D01*
X0250791Y0226028D01*
X0252100Y0229189D01*
X0252100Y0237811D01*
X0250791Y0240972D01*
X0248372Y0243391D01*
X0245211Y0244700D01*
X0241789Y0244700D01*
X0238628Y0243391D01*
X0238500Y0243262D01*
X0238372Y0243391D01*
X0235211Y0244700D01*
X0231789Y0244700D01*
X0228628Y0243391D01*
X0228500Y0243262D01*
X0228372Y0243391D01*
X0225211Y0244700D01*
X0221789Y0244700D01*
X0218628Y0243391D01*
X0218500Y0243262D01*
X0218372Y0243391D01*
X0215211Y0244700D01*
X0211789Y0244700D01*
X0208628Y0243391D01*
X0206209Y0240972D01*
X0204900Y0237811D01*
X0204900Y0229189D01*
X0206209Y0226028D01*
X0208628Y0223609D01*
X0211789Y0222300D01*
X0215211Y0222300D01*
X0215221Y0222304D01*
X0214407Y0220340D01*
X0214407Y0216660D01*
X0215716Y0213500D01*
X0198500Y0213500D01*
X0198500Y0265500D01*
X0200091Y0265500D01*
X0203032Y0266718D01*
X0205282Y0268968D01*
X0207875Y0271561D01*
X0209458Y0269978D01*
X0209229Y0269748D01*
X0208710Y0269035D01*
X0208310Y0268250D01*
X0208038Y0267411D01*
X0207900Y0266541D01*
X0207900Y0263500D01*
X0213500Y0263500D01*
X0213500Y0255300D01*
X0213941Y0255300D01*
X0214811Y0255438D01*
X0215650Y0255710D01*
X0216231Y0256007D01*
X0218628Y0253609D01*
X0221789Y0252300D01*
X0225211Y0252300D01*
X0228372Y0253609D01*
X0228500Y0253738D01*
X0228628Y0253609D01*
X0231789Y0252300D01*
X0235211Y0252300D01*
X0238372Y0253609D01*
X0238500Y0253738D01*
X0238628Y0253609D01*
X0241789Y0252300D01*
X0245211Y0252300D01*
X0248372Y0253609D01*
X0250791Y0256028D01*
X0252100Y0259189D01*
X0252100Y0267811D01*
X0250791Y0270972D01*
X0249843Y0271919D01*
X0251184Y0273260D01*
X0252593Y0276660D01*
X0252593Y0279700D01*
X0255211Y0279700D01*
X0258372Y0281009D01*
X0258500Y0281138D01*
X0258628Y0281009D01*
X0259464Y0280663D01*
X0258105Y0280100D01*
X0255425Y0277420D01*
X0253975Y0273920D01*
X0253975Y0263080D01*
X0255425Y0259580D01*
X0258105Y0256900D01*
X0261605Y0255450D01*
X0265395Y0255450D01*
X0268895Y0256900D01*
X0271575Y0259580D01*
X0273025Y0263080D01*
X0273025Y0273920D01*
X0271575Y0277420D01*
X0268895Y0280100D01*
X0267536Y0280663D01*
X0268372Y0281009D01*
X0268500Y0281138D01*
X0268628Y0281009D01*
X0271789Y0279700D01*
X0275211Y0279700D01*
X0278372Y0281009D01*
X0280791Y0283428D01*
X0282100Y0286589D01*
X0282100Y0295211D01*
X0280791Y0298372D01*
X0278372Y0300791D01*
X0275211Y0302100D01*
X0271789Y0302100D01*
X0268628Y0300791D01*
X0268500Y0300662D01*
X0268372Y0300791D01*
X0265211Y0302100D01*
X0261789Y0302100D01*
X0258628Y0300791D01*
X0258500Y0300662D01*
X0258372Y0300791D01*
X0255211Y0302100D01*
X0251789Y0302100D01*
X0248628Y0300791D01*
X0248500Y0300662D01*
X0248372Y0300791D01*
X0245211Y0302100D01*
X0241789Y0302100D01*
X0238628Y0300791D01*
X0236209Y0298372D01*
X0234900Y0295211D01*
X0234900Y0286589D01*
X0235911Y0284150D01*
X0235501Y0283740D01*
X0234093Y0280340D01*
X0234093Y0276660D01*
X0234904Y0274700D01*
X0231789Y0274700D01*
X0228660Y0273404D01*
X0228032Y0274032D01*
X0228030Y0274034D01*
X0228425Y0274428D01*
X0229003Y0275224D01*
X0229450Y0276101D01*
X0229754Y0277036D01*
X0229907Y0278008D01*
X0229907Y0278500D01*
X0229907Y0278992D01*
X0229754Y0279964D01*
X0229450Y0280899D01*
X0229003Y0281776D01*
X0228425Y0282572D01*
X0227729Y0283267D01*
X0226933Y0283845D01*
X0226132Y0284253D01*
X0227100Y0286589D01*
X0227100Y0295211D01*
X0225791Y0298372D01*
X0223372Y0300791D01*
X0220211Y0302100D01*
X0216789Y0302100D01*
X0213628Y0300791D01*
X0213500Y0300662D01*
X0213372Y0300791D01*
X0210211Y0302100D01*
X0206789Y0302100D01*
X0203628Y0300791D01*
X0203500Y0300662D01*
X0203372Y0300791D01*
X0200211Y0302100D01*
X0196789Y0302100D01*
X0193628Y0300791D01*
X0193500Y0300662D01*
X0193372Y0300791D01*
X0190211Y0302100D01*
X0186789Y0302100D01*
X0183628Y0300791D01*
X0181209Y0298372D01*
X0179900Y0295211D01*
X0179900Y0286589D01*
X0181209Y0283428D01*
X0183138Y0281500D01*
X0111909Y0281500D01*
X0108968Y0280282D01*
X0103968Y0275282D01*
X0102902Y0274216D01*
X0101575Y0277420D01*
X0098895Y0280100D01*
X0095395Y0281550D01*
X0091605Y0281550D01*
X0088105Y0280100D01*
X0085425Y0277420D01*
X0083975Y0273920D01*
X0083975Y0263080D01*
X0085425Y0259580D01*
X0088105Y0256900D01*
X0089070Y0256500D01*
X0080986Y0256500D01*
X0082100Y0259189D01*
X0082100Y0267811D01*
X0080791Y0270972D01*
X0079843Y0271919D01*
X0081184Y0273260D01*
X0082593Y0276660D01*
X0082593Y0280340D01*
X0081184Y0283740D01*
X0078582Y0286342D01*
X0075182Y0287750D01*
X0071503Y0287750D01*
X0068103Y0286342D01*
X0065501Y0283740D01*
X0064093Y0280340D01*
X0064093Y0276660D01*
X0064904Y0274700D01*
X0061789Y0274700D01*
X0058628Y0273391D01*
X0058500Y0273262D01*
X0059092Y0275399D02*
X0064615Y0275399D01*
X0064093Y0279397D02*
X0059843Y0279397D01*
X0057552Y0283396D02*
X0065358Y0283396D01*
X0070644Y0287394D02*
X0052128Y0287394D01*
X0052869Y0291393D02*
X0053445Y0291393D01*
X0053657Y0283396D02*
X0053658Y0283396D01*
X0053657Y0279397D02*
X0053658Y0279397D01*
X0048177Y0275489D02*
X0048312Y0275224D01*
X0048890Y0274428D01*
X0049547Y0273771D01*
X0048628Y0273391D01*
X0046231Y0270993D01*
X0045650Y0271290D01*
X0044811Y0271562D01*
X0043941Y0271700D01*
X0043500Y0271700D01*
X0043500Y0263500D01*
X0043500Y0263500D01*
X0043500Y0255300D01*
X0043941Y0255300D01*
X0044811Y0255438D01*
X0045650Y0255710D01*
X0046231Y0256007D01*
X0048628Y0253609D01*
X0051789Y0252300D01*
X0055211Y0252300D01*
X0055500Y0252420D01*
X0055500Y0251909D01*
X0056718Y0248968D01*
X0058968Y0246718D01*
X0061222Y0244465D01*
X0058628Y0243391D01*
X0058500Y0243262D01*
X0058372Y0243391D01*
X0055211Y0244700D01*
X0051789Y0244700D01*
X0048628Y0243391D01*
X0048500Y0243262D01*
X0048372Y0243391D01*
X0045211Y0244700D01*
X0041789Y0244700D01*
X0038628Y0243391D01*
X0036209Y0240972D01*
X0034900Y0237811D01*
X0034900Y0229189D01*
X0036209Y0226028D01*
X0038628Y0223609D01*
X0041789Y0222300D01*
X0045211Y0222300D01*
X0045221Y0222304D01*
X0044407Y0220340D01*
X0044407Y0216660D01*
X0045716Y0213500D01*
X0013500Y0213500D01*
X0013500Y0287772D01*
X0015402Y0285870D01*
X0018710Y0284500D01*
X0028290Y0284500D01*
X0029000Y0284794D01*
X0029000Y0281710D01*
X0030370Y0278402D01*
X0032902Y0275870D01*
X0036210Y0274500D01*
X0045790Y0274500D01*
X0048177Y0275489D01*
X0048223Y0275399D02*
X0047960Y0275399D01*
X0046638Y0271400D02*
X0045309Y0271400D01*
X0043500Y0271400D02*
X0043500Y0271400D01*
X0043500Y0271700D02*
X0043059Y0271700D01*
X0042189Y0271562D01*
X0041350Y0271290D01*
X0040565Y0270890D01*
X0039852Y0270371D01*
X0039229Y0269748D01*
X0038710Y0269035D01*
X0038310Y0268250D01*
X0038038Y0267411D01*
X0037900Y0266541D01*
X0037900Y0263500D01*
X0043500Y0263500D01*
X0043500Y0263500D01*
X0043500Y0263500D01*
X0043500Y0271700D01*
X0041691Y0271400D02*
X0013500Y0271400D01*
X0013500Y0275399D02*
X0034040Y0275399D01*
X0029958Y0279397D02*
X0013500Y0279397D01*
X0013500Y0283396D02*
X0029000Y0283396D01*
X0013878Y0287394D02*
X0013500Y0287394D01*
X0013500Y0267402D02*
X0038036Y0267402D01*
X0037900Y0263500D02*
X0037900Y0260459D01*
X0038038Y0259589D01*
X0038310Y0258750D01*
X0038710Y0257965D01*
X0039229Y0257252D01*
X0039852Y0256629D01*
X0040565Y0256110D01*
X0041350Y0255710D01*
X0042189Y0255438D01*
X0043059Y0255300D01*
X0043500Y0255300D01*
X0043500Y0263500D01*
X0037900Y0263500D01*
X0037900Y0263403D02*
X0013500Y0263403D01*
X0013500Y0259405D02*
X0038098Y0259405D01*
X0042389Y0255406D02*
X0013500Y0255406D01*
X0013500Y0251408D02*
X0055708Y0251408D01*
X0058277Y0247409D02*
X0013500Y0247409D01*
X0013500Y0243411D02*
X0038677Y0243411D01*
X0035563Y0239412D02*
X0013500Y0239412D01*
X0013500Y0235414D02*
X0034900Y0235414D01*
X0034900Y0231415D02*
X0013500Y0231415D01*
X0013500Y0227417D02*
X0035634Y0227417D01*
X0039090Y0223418D02*
X0013500Y0223418D01*
X0013500Y0219420D02*
X0044407Y0219420D01*
X0044921Y0215421D02*
X0013500Y0215421D01*
X0013500Y0211423D02*
X0047653Y0211423D01*
X0056263Y0203426D02*
X0013500Y0203426D01*
X0013500Y0207424D02*
X0293500Y0207424D01*
X0293500Y0203426D02*
X0220737Y0203426D01*
X0222100Y0202062D02*
X0217062Y0207100D01*
X0209938Y0207100D01*
X0204900Y0202062D01*
X0204900Y0194938D01*
X0209938Y0189900D01*
X0217062Y0189900D01*
X0222100Y0194938D01*
X0222100Y0202062D01*
X0222100Y0199427D02*
X0293500Y0199427D01*
X0293500Y0195429D02*
X0222100Y0195429D01*
X0218592Y0191430D02*
X0293500Y0191430D01*
X0293500Y0187432D02*
X0172750Y0187432D01*
X0172750Y0189193D02*
X0171837Y0191399D01*
X0170149Y0193087D01*
X0167943Y0194000D01*
X0159057Y0194000D01*
X0156851Y0193087D01*
X0155163Y0191399D01*
X0154250Y0189193D01*
X0154250Y0180307D01*
X0155163Y0178101D01*
X0156851Y0176413D01*
X0159057Y0175500D01*
X0167943Y0175500D01*
X0170149Y0176413D01*
X0171837Y0178101D01*
X0172750Y0180307D01*
X0172750Y0189193D01*
X0171805Y0191430D02*
X0208408Y0191430D01*
X0204900Y0195429D02*
X0072100Y0195429D01*
X0072100Y0194938D02*
X0067062Y0189900D01*
X0059938Y0189900D01*
X0054900Y0194938D01*
X0054900Y0202062D01*
X0059938Y0207100D01*
X0067062Y0207100D01*
X0072100Y0202062D01*
X0072100Y0194938D01*
X0072100Y0199427D02*
X0204900Y0199427D01*
X0206263Y0203426D02*
X0070737Y0203426D01*
X0067338Y0211423D02*
X0059662Y0211423D01*
X0054900Y0199427D02*
X0013500Y0199427D01*
X0013500Y0195429D02*
X0054900Y0195429D01*
X0058408Y0191430D02*
X0013500Y0191430D01*
X0013500Y0187432D02*
X0154250Y0187432D01*
X0154250Y0183433D02*
X0013500Y0183433D01*
X0013500Y0179434D02*
X0154611Y0179434D01*
X0155195Y0191430D02*
X0068592Y0191430D01*
X0079347Y0211423D02*
X0217653Y0211423D01*
X0214921Y0215421D02*
X0198500Y0215421D01*
X0168010Y0215421D01*
X0171664Y0219420D02*
X0198500Y0219420D01*
X0214407Y0219420D01*
X0209090Y0223418D02*
X0198500Y0223418D01*
X0172593Y0223418D01*
X0171732Y0227417D02*
X0198500Y0227417D01*
X0205634Y0227417D01*
X0204900Y0231415D02*
X0198500Y0231415D01*
X0168405Y0231415D01*
X0198500Y0235414D02*
X0204900Y0235414D01*
X0205563Y0239412D02*
X0198500Y0239412D01*
X0198500Y0243411D02*
X0208677Y0243411D01*
X0198500Y0247409D02*
X0293500Y0247409D01*
X0293500Y0243411D02*
X0248323Y0243411D01*
X0251437Y0239412D02*
X0257417Y0239412D01*
X0258105Y0240100D02*
X0255425Y0237420D01*
X0253975Y0233920D01*
X0253975Y0223080D01*
X0255425Y0219580D01*
X0258105Y0216900D01*
X0261605Y0215450D01*
X0265395Y0215450D01*
X0268895Y0216900D01*
X0271575Y0219580D01*
X0273025Y0223080D01*
X0273025Y0233920D01*
X0271575Y0237420D01*
X0268895Y0240100D01*
X0265395Y0241550D01*
X0261605Y0241550D01*
X0258105Y0240100D01*
X0254594Y0235414D02*
X0252100Y0235414D01*
X0252100Y0231415D02*
X0253975Y0231415D01*
X0253975Y0227417D02*
X0251366Y0227417D01*
X0251317Y0223418D02*
X0253975Y0223418D01*
X0252593Y0219420D02*
X0255585Y0219420D01*
X0252079Y0215421D02*
X0293500Y0215421D01*
X0293500Y0211423D02*
X0249347Y0211423D01*
X0237338Y0211423D02*
X0229662Y0211423D01*
X0228677Y0243411D02*
X0228323Y0243411D01*
X0218677Y0243411D02*
X0218323Y0243411D01*
X0216832Y0255406D02*
X0214611Y0255406D01*
X0213500Y0255406D02*
X0213500Y0255406D01*
X0213500Y0255300D02*
X0213500Y0263500D01*
X0213500Y0263500D01*
X0213500Y0263500D01*
X0207900Y0263500D01*
X0207900Y0260459D01*
X0208038Y0259589D01*
X0208310Y0258750D01*
X0208710Y0257965D01*
X0209229Y0257252D01*
X0209852Y0256629D01*
X0210565Y0256110D01*
X0211350Y0255710D01*
X0212189Y0255438D01*
X0213059Y0255300D01*
X0213500Y0255300D01*
X0212389Y0255406D02*
X0198500Y0255406D01*
X0198500Y0251408D02*
X0293500Y0251408D01*
X0293500Y0255406D02*
X0250168Y0255406D01*
X0252100Y0259405D02*
X0255600Y0259405D01*
X0253975Y0263403D02*
X0252100Y0263403D01*
X0252100Y0267402D02*
X0253975Y0267402D01*
X0253975Y0271400D02*
X0250362Y0271400D01*
X0252070Y0275399D02*
X0254588Y0275399D01*
X0252593Y0279397D02*
X0257402Y0279397D01*
X0269598Y0279397D02*
X0293500Y0279397D01*
X0293500Y0275399D02*
X0272412Y0275399D01*
X0273025Y0271400D02*
X0293500Y0271400D01*
X0293500Y0267402D02*
X0273025Y0267402D01*
X0273025Y0263403D02*
X0293500Y0263403D01*
X0293500Y0259405D02*
X0271400Y0259405D01*
X0269583Y0239412D02*
X0293500Y0239412D01*
X0293500Y0235414D02*
X0272406Y0235414D01*
X0273025Y0231415D02*
X0293500Y0231415D01*
X0293500Y0227417D02*
X0273025Y0227417D01*
X0273025Y0223418D02*
X0293500Y0223418D01*
X0293500Y0219420D02*
X0271415Y0219420D01*
X0293500Y0183433D02*
X0172750Y0183433D01*
X0172389Y0179434D02*
X0293500Y0179434D01*
X0293500Y0175436D02*
X0013500Y0175436D01*
X0013500Y0171437D02*
X0293500Y0171437D01*
X0293500Y0167439D02*
X0013500Y0167439D01*
X0013500Y0163440D02*
X0056278Y0163440D01*
X0054900Y0162062D02*
X0059938Y0167100D01*
X0067062Y0167100D01*
X0072100Y0162062D01*
X0072100Y0155500D01*
X0075290Y0155500D01*
X0078500Y0154170D01*
X0081710Y0155500D01*
X0085290Y0155500D01*
X0088598Y0154130D01*
X0091130Y0151598D01*
X0092500Y0148290D01*
X0092500Y0138710D01*
X0091833Y0137100D01*
X0097062Y0137100D01*
X0102100Y0132062D01*
X0102100Y0124938D01*
X0097062Y0119900D01*
X0089938Y0119900D01*
X0084900Y0124938D01*
X0084900Y0131500D01*
X0081710Y0131500D01*
X0078500Y0132830D01*
X0075290Y0131500D01*
X0071710Y0131500D01*
X0068500Y0132830D01*
X0065290Y0131500D01*
X0062100Y0131500D01*
X0062100Y0124938D01*
X0057062Y0119900D01*
X0049938Y0119900D01*
X0044900Y0124938D01*
X0044900Y0132062D01*
X0049938Y0137100D01*
X0055167Y0137100D01*
X0054500Y0138710D01*
X0054500Y0148290D01*
X0055870Y0151598D01*
X0057055Y0152783D01*
X0054900Y0154938D01*
X0054900Y0162062D01*
X0054900Y0159442D02*
X0013500Y0159442D01*
X0013500Y0155443D02*
X0054900Y0155443D01*
X0055807Y0151445D02*
X0013500Y0151445D01*
X0013500Y0147446D02*
X0054500Y0147446D01*
X0054500Y0143448D02*
X0013500Y0143448D01*
X0013500Y0139449D02*
X0054500Y0139449D01*
X0048289Y0135451D02*
X0013500Y0135451D01*
X0013500Y0131452D02*
X0044900Y0131452D01*
X0044900Y0127454D02*
X0013500Y0127454D01*
X0013500Y0123455D02*
X0046382Y0123455D01*
X0060618Y0123455D02*
X0086382Y0123455D01*
X0084900Y0127454D02*
X0062100Y0127454D01*
X0062100Y0131452D02*
X0084900Y0131452D01*
X0092500Y0139449D02*
X0224500Y0139449D01*
X0224500Y0138710D02*
X0225870Y0135402D01*
X0228402Y0132870D01*
X0231710Y0131500D01*
X0235290Y0131500D01*
X0238500Y0132830D01*
X0241710Y0131500D01*
X0244900Y0131500D01*
X0244900Y0124938D01*
X0249938Y0119900D01*
X0257062Y0119900D01*
X0262100Y0124938D01*
X0262100Y0132062D01*
X0257062Y0137100D01*
X0251833Y0137100D01*
X0252500Y0138710D01*
X0252500Y0148290D01*
X0251130Y0151598D01*
X0248598Y0154130D01*
X0245290Y0155500D01*
X0241710Y0155500D01*
X0238500Y0154170D01*
X0235290Y0155500D01*
X0231710Y0155500D01*
X0228402Y0154130D01*
X0225870Y0151598D01*
X0224500Y0148290D01*
X0224500Y0138710D01*
X0225850Y0135451D02*
X0098711Y0135451D01*
X0102100Y0131452D02*
X0244900Y0131452D01*
X0244900Y0127454D02*
X0102100Y0127454D01*
X0100618Y0123455D02*
X0246382Y0123455D01*
X0260618Y0123455D02*
X0293500Y0123455D01*
X0293500Y0127454D02*
X0262100Y0127454D01*
X0262100Y0131452D02*
X0293500Y0131452D01*
X0293500Y0135451D02*
X0258711Y0135451D01*
X0252500Y0139449D02*
X0293500Y0139449D01*
X0293500Y0143448D02*
X0252500Y0143448D01*
X0252500Y0147446D02*
X0293500Y0147446D01*
X0293500Y0151445D02*
X0251193Y0151445D01*
X0245427Y0155443D02*
X0293500Y0155443D01*
X0293500Y0159442D02*
X0222100Y0159442D01*
X0222100Y0162062D02*
X0222100Y0154938D01*
X0217062Y0149900D01*
X0209938Y0149900D01*
X0204900Y0154938D01*
X0204900Y0162062D01*
X0209938Y0167100D01*
X0217062Y0167100D01*
X0222100Y0162062D01*
X0220722Y0163440D02*
X0293500Y0163440D01*
X0293500Y0119457D02*
X0013500Y0119457D01*
X0013500Y0115458D02*
X0293500Y0115458D01*
X0293500Y0111460D02*
X0013500Y0111460D01*
X0013500Y0107461D02*
X0293500Y0107461D01*
X0293500Y0103463D02*
X0013500Y0103463D01*
X0013500Y0099464D02*
X0293500Y0099464D01*
X0293500Y0095466D02*
X0288696Y0095466D01*
X0287062Y0097100D02*
X0292100Y0092062D01*
X0292100Y0084938D01*
X0287062Y0079900D01*
X0279938Y0079900D01*
X0274900Y0084938D01*
X0274900Y0092062D01*
X0279938Y0097100D01*
X0287062Y0097100D01*
X0292100Y0091467D02*
X0293500Y0091467D01*
X0293500Y0087469D02*
X0292100Y0087469D01*
X0293500Y0083470D02*
X0290632Y0083470D01*
X0293500Y0079472D02*
X0252011Y0079472D01*
X0252500Y0078290D02*
X0251130Y0081598D01*
X0249945Y0082783D01*
X0252100Y0084938D01*
X0252100Y0092062D01*
X0247062Y0097100D01*
X0239938Y0097100D01*
X0234900Y0092062D01*
X0234900Y0085500D01*
X0231710Y0085500D01*
X0228500Y0084170D01*
X0225290Y0085500D01*
X0221710Y0085500D01*
X0218402Y0084130D01*
X0215870Y0081598D01*
X0214500Y0078290D01*
X0214500Y0068710D01*
X0215167Y0067100D01*
X0209938Y0067100D01*
X0204900Y0062062D01*
X0204900Y0054938D01*
X0209938Y0049900D01*
X0217062Y0049900D01*
X0222100Y0054938D01*
X0222100Y0061500D01*
X0225290Y0061500D01*
X0228500Y0062830D01*
X0231710Y0061500D01*
X0235290Y0061500D01*
X0238500Y0062830D01*
X0241710Y0061500D01*
X0244900Y0061500D01*
X0244900Y0054938D01*
X0249938Y0049900D01*
X0257062Y0049900D01*
X0262100Y0054938D01*
X0262100Y0062062D01*
X0257062Y0067100D01*
X0251833Y0067100D01*
X0252500Y0068710D01*
X0252500Y0078290D01*
X0252500Y0075473D02*
X0293500Y0075473D01*
X0293500Y0071475D02*
X0252500Y0071475D01*
X0251989Y0067476D02*
X0293500Y0067476D01*
X0293500Y0063478D02*
X0260685Y0063478D01*
X0262100Y0059479D02*
X0293500Y0059479D01*
X0293500Y0055481D02*
X0262100Y0055481D01*
X0258644Y0051482D02*
X0293500Y0051482D01*
X0293500Y0047484D02*
X0013500Y0047484D01*
X0013500Y0051482D02*
X0048356Y0051482D01*
X0049938Y0049900D02*
X0044900Y0054938D01*
X0044900Y0062062D01*
X0049938Y0067100D01*
X0055167Y0067100D01*
X0054500Y0068710D01*
X0054500Y0078290D01*
X0055870Y0081598D01*
X0057055Y0082783D01*
X0054900Y0084938D01*
X0054900Y0092062D01*
X0059938Y0097100D01*
X0067062Y0097100D01*
X0072100Y0092062D01*
X0072100Y0085500D01*
X0075290Y0085500D01*
X0078598Y0084130D01*
X0081130Y0081598D01*
X0082500Y0078290D01*
X0082500Y0068710D01*
X0081130Y0065402D01*
X0078598Y0062870D01*
X0075290Y0061500D01*
X0071710Y0061500D01*
X0068500Y0062830D01*
X0065290Y0061500D01*
X0062100Y0061500D01*
X0062100Y0054938D01*
X0057062Y0049900D01*
X0049938Y0049900D01*
X0044900Y0055481D02*
X0013500Y0055481D01*
X0013500Y0059479D02*
X0044900Y0059479D01*
X0046315Y0063478D02*
X0013500Y0063478D01*
X0013500Y0067476D02*
X0055011Y0067476D01*
X0054500Y0071475D02*
X0013500Y0071475D01*
X0013500Y0075473D02*
X0054500Y0075473D01*
X0054989Y0079472D02*
X0013500Y0079472D01*
X0013500Y0083470D02*
X0016368Y0083470D01*
X0014900Y0084938D02*
X0019938Y0079900D01*
X0027062Y0079900D01*
X0032100Y0084938D01*
X0032100Y0092062D01*
X0027062Y0097100D01*
X0019938Y0097100D01*
X0014900Y0092062D01*
X0014900Y0084938D01*
X0014900Y0087469D02*
X0013500Y0087469D01*
X0013500Y0091467D02*
X0014900Y0091467D01*
X0013500Y0095466D02*
X0018304Y0095466D01*
X0028696Y0095466D02*
X0058304Y0095466D01*
X0054900Y0091467D02*
X0032100Y0091467D01*
X0032100Y0087469D02*
X0054900Y0087469D01*
X0056368Y0083470D02*
X0030632Y0083470D01*
X0058644Y0051482D02*
X0208356Y0051482D01*
X0204900Y0055481D02*
X0062100Y0055481D01*
X0062100Y0059479D02*
X0204900Y0059479D01*
X0206315Y0063478D02*
X0079206Y0063478D01*
X0081989Y0067476D02*
X0215011Y0067476D01*
X0214500Y0071475D02*
X0082500Y0071475D01*
X0082500Y0075473D02*
X0214500Y0075473D01*
X0214989Y0079472D02*
X0082011Y0079472D01*
X0079258Y0083470D02*
X0217742Y0083470D01*
X0234900Y0087469D02*
X0072100Y0087469D01*
X0072100Y0091467D02*
X0234900Y0091467D01*
X0238304Y0095466D02*
X0068696Y0095466D01*
X0092500Y0143448D02*
X0224500Y0143448D01*
X0224500Y0147446D02*
X0092500Y0147446D01*
X0091193Y0151445D02*
X0208393Y0151445D01*
X0204900Y0155443D02*
X0085427Y0155443D01*
X0081573Y0155443D02*
X0075427Y0155443D01*
X0072100Y0159442D02*
X0204900Y0159442D01*
X0206278Y0163440D02*
X0070722Y0163440D01*
X0058677Y0243411D02*
X0058323Y0243411D01*
X0048677Y0243411D02*
X0048323Y0243411D01*
X0046832Y0255406D02*
X0044611Y0255406D01*
X0043500Y0255406D02*
X0043500Y0255406D01*
X0043500Y0259405D02*
X0043500Y0259405D01*
X0043500Y0263403D02*
X0043500Y0263403D01*
X0043500Y0267402D02*
X0043500Y0267402D01*
X0063555Y0291393D02*
X0093445Y0291393D01*
X0094938Y0289900D02*
X0102062Y0289900D01*
X0107100Y0294938D01*
X0107100Y0302062D01*
X0105662Y0303500D01*
X0107100Y0304938D01*
X0107100Y0312062D01*
X0105662Y0313500D01*
X0107100Y0314938D01*
X0107100Y0322062D01*
X0102062Y0327100D01*
X0094938Y0327100D01*
X0089900Y0322062D01*
X0089900Y0314938D01*
X0091338Y0313500D01*
X0089900Y0312062D01*
X0089900Y0304938D01*
X0091338Y0303500D01*
X0089900Y0302062D01*
X0089900Y0294938D01*
X0094938Y0289900D01*
X0089900Y0295391D02*
X0067100Y0295391D01*
X0067100Y0299390D02*
X0089900Y0299390D01*
X0091226Y0303388D02*
X0065774Y0303388D01*
X0067100Y0307387D02*
X0089900Y0307387D01*
X0089900Y0311385D02*
X0067100Y0311385D01*
X0067100Y0315384D02*
X0089900Y0315384D01*
X0089900Y0319382D02*
X0067100Y0319382D01*
X0065781Y0323381D02*
X0091219Y0323381D01*
X0105781Y0323381D02*
X0179900Y0323381D01*
X0179900Y0321789D02*
X0181209Y0318628D01*
X0183628Y0316209D01*
X0186789Y0314900D01*
X0190211Y0314900D01*
X0193372Y0316209D01*
X0193500Y0316338D01*
X0193628Y0316209D01*
X0196789Y0314900D01*
X0200211Y0314900D01*
X0203372Y0316209D01*
X0203500Y0316338D01*
X0203628Y0316209D01*
X0206789Y0314900D01*
X0210211Y0314900D01*
X0213372Y0316209D01*
X0213500Y0316338D01*
X0213628Y0316209D01*
X0216789Y0314900D01*
X0220211Y0314900D01*
X0223372Y0316209D01*
X0225791Y0318628D01*
X0227100Y0321789D01*
X0227100Y0330411D01*
X0225791Y0333572D01*
X0223372Y0335991D01*
X0220211Y0337300D01*
X0216789Y0337300D01*
X0213628Y0335991D01*
X0213500Y0335862D01*
X0213372Y0335991D01*
X0210211Y0337300D01*
X0206789Y0337300D01*
X0203628Y0335991D01*
X0203500Y0335862D01*
X0203372Y0335991D01*
X0200211Y0337300D01*
X0196789Y0337300D01*
X0193628Y0335991D01*
X0193500Y0335862D01*
X0193372Y0335991D01*
X0190211Y0337300D01*
X0186789Y0337300D01*
X0183628Y0335991D01*
X0181209Y0333572D01*
X0179900Y0330411D01*
X0179900Y0321789D01*
X0180897Y0319382D02*
X0107100Y0319382D01*
X0107100Y0315384D02*
X0185621Y0315384D01*
X0191379Y0315384D02*
X0195621Y0315384D01*
X0201379Y0315384D02*
X0205621Y0315384D01*
X0211379Y0315384D02*
X0215621Y0315384D01*
X0221379Y0315384D02*
X0240621Y0315384D01*
X0241789Y0314900D02*
X0245211Y0314900D01*
X0248372Y0316209D01*
X0248500Y0316338D01*
X0248628Y0316209D01*
X0251789Y0314900D01*
X0255211Y0314900D01*
X0258372Y0316209D01*
X0258500Y0316338D01*
X0258628Y0316209D01*
X0261789Y0314900D01*
X0265211Y0314900D01*
X0268372Y0316209D01*
X0268500Y0316338D01*
X0268628Y0316209D01*
X0271789Y0314900D01*
X0275211Y0314900D01*
X0278372Y0316209D01*
X0280791Y0318628D01*
X0282100Y0321789D01*
X0282100Y0330411D01*
X0280791Y0333572D01*
X0278372Y0335991D01*
X0275211Y0337300D01*
X0271789Y0337300D01*
X0268628Y0335991D01*
X0268500Y0335862D01*
X0268372Y0335991D01*
X0265211Y0337300D01*
X0261789Y0337300D01*
X0258628Y0335991D01*
X0258500Y0335862D01*
X0258372Y0335991D01*
X0255211Y0337300D01*
X0251789Y0337300D01*
X0248628Y0335991D01*
X0248500Y0335862D01*
X0248372Y0335991D01*
X0245211Y0337300D01*
X0241789Y0337300D01*
X0238628Y0335991D01*
X0236209Y0333572D01*
X0234900Y0330411D01*
X0234900Y0321789D01*
X0236209Y0318628D01*
X0238628Y0316209D01*
X0241789Y0314900D01*
X0246379Y0315384D02*
X0250621Y0315384D01*
X0256379Y0315384D02*
X0260621Y0315384D01*
X0266379Y0315384D02*
X0270621Y0315384D01*
X0276379Y0315384D02*
X0293500Y0315384D01*
X0293500Y0319382D02*
X0281103Y0319382D01*
X0282100Y0323381D02*
X0293500Y0323381D01*
X0293500Y0327379D02*
X0282100Y0327379D01*
X0281699Y0331378D02*
X0293500Y0331378D01*
X0293500Y0335376D02*
X0278986Y0335376D01*
X0293500Y0311385D02*
X0107100Y0311385D01*
X0107100Y0307387D02*
X0293500Y0307387D01*
X0293500Y0303388D02*
X0105774Y0303388D01*
X0107100Y0299390D02*
X0182228Y0299390D01*
X0179975Y0295391D02*
X0107100Y0295391D01*
X0103555Y0291393D02*
X0179900Y0291393D01*
X0179900Y0287394D02*
X0076041Y0287394D01*
X0081327Y0283396D02*
X0181242Y0283396D01*
X0198500Y0273500D02*
X0113500Y0273500D01*
X0108500Y0268500D01*
X0108500Y0253500D01*
X0103500Y0248500D01*
X0085600Y0259405D02*
X0082100Y0259405D01*
X0082100Y0263403D02*
X0083975Y0263403D01*
X0083975Y0267402D02*
X0082100Y0267402D01*
X0080362Y0271400D02*
X0083975Y0271400D01*
X0084588Y0275399D02*
X0082070Y0275399D01*
X0082593Y0279397D02*
X0087402Y0279397D01*
X0099598Y0279397D02*
X0108084Y0279397D01*
X0104085Y0275399D02*
X0102412Y0275399D01*
X0052135Y0327379D02*
X0179900Y0327379D01*
X0180301Y0331378D02*
X0048499Y0331378D01*
X0033501Y0331378D02*
X0030999Y0331378D01*
X0016001Y0331378D02*
X0013500Y0331378D01*
X0013500Y0335376D02*
X0183014Y0335376D01*
X0208500Y0293500D02*
X0208500Y0283500D01*
X0198500Y0273500D01*
X0203715Y0267402D02*
X0208036Y0267402D01*
X0207900Y0263403D02*
X0198500Y0263403D01*
X0198500Y0259405D02*
X0208098Y0259405D01*
X0213500Y0259405D02*
X0213500Y0259405D01*
X0213500Y0263403D02*
X0213500Y0263403D01*
X0208036Y0271400D02*
X0207714Y0271400D01*
X0208500Y0282250D02*
X0223500Y0267250D01*
X0223500Y0263500D01*
X0229092Y0275399D02*
X0234615Y0275399D01*
X0234093Y0279397D02*
X0229843Y0279397D01*
X0229907Y0278500D02*
X0223658Y0278500D01*
X0223658Y0278500D01*
X0229907Y0278500D01*
X0227552Y0283396D02*
X0235358Y0283396D01*
X0234900Y0287394D02*
X0227100Y0287394D01*
X0227100Y0291393D02*
X0234900Y0291393D01*
X0234975Y0295391D02*
X0227025Y0295391D01*
X0224772Y0299390D02*
X0237228Y0299390D01*
X0235897Y0319382D02*
X0226103Y0319382D01*
X0227100Y0323381D02*
X0234900Y0323381D01*
X0234900Y0327379D02*
X0227100Y0327379D01*
X0226699Y0331378D02*
X0235301Y0331378D01*
X0238014Y0335376D02*
X0223986Y0335376D01*
X0208500Y0283500D02*
X0208500Y0282250D01*
X0238323Y0243411D02*
X0238677Y0243411D01*
X0280758Y0283396D02*
X0293500Y0283396D01*
X0293500Y0287394D02*
X0282100Y0287394D01*
X0282100Y0291393D02*
X0293500Y0291393D01*
X0293500Y0295391D02*
X0282025Y0295391D01*
X0279772Y0299390D02*
X0293500Y0299390D01*
X0241573Y0155443D02*
X0235427Y0155443D01*
X0231573Y0155443D02*
X0222100Y0155443D01*
X0218607Y0151445D02*
X0225807Y0151445D01*
X0248696Y0095466D02*
X0278304Y0095466D01*
X0274900Y0091467D02*
X0252100Y0091467D01*
X0252100Y0087469D02*
X0274900Y0087469D01*
X0276368Y0083470D02*
X0250632Y0083470D01*
X0244900Y0059479D02*
X0222100Y0059479D01*
X0222100Y0055481D02*
X0244900Y0055481D01*
X0248356Y0051482D02*
X0218644Y0051482D01*
X0216413Y0027491D02*
X0209706Y0027491D01*
X0221287Y0027491D02*
X0237202Y0027491D01*
X0249607Y0027491D02*
X0267057Y0027491D01*
X0271931Y0027491D02*
X0286311Y0027491D01*
X0293500Y0031490D02*
X0172868Y0031490D01*
X0172868Y0028080D02*
X0172868Y0038920D01*
X0171417Y0042420D01*
X0168738Y0045100D01*
X0165237Y0046550D01*
X0161448Y0046550D01*
X0157947Y0045100D01*
X0155268Y0042420D01*
X0153818Y0038920D01*
X0153818Y0028080D01*
X0155268Y0024580D01*
X0157947Y0021900D01*
X0161448Y0020450D01*
X0165237Y0020450D01*
X0168738Y0021900D01*
X0171417Y0024580D01*
X0172868Y0028080D01*
X0172623Y0027491D02*
X0194232Y0027491D01*
X0192500Y0023493D02*
X0170330Y0023493D01*
X0172868Y0035488D02*
X0293500Y0035488D01*
X0293500Y0039487D02*
X0172633Y0039487D01*
X0170353Y0043485D02*
X0293500Y0043485D01*
X0192500Y0019494D02*
X0097032Y0019494D01*
X0097032Y0015496D02*
X0192500Y0015496D01*
X0156355Y0023493D02*
X0150645Y0023493D01*
X0151732Y0024580D02*
X0153182Y0028080D01*
X0153182Y0038920D01*
X0151732Y0042420D01*
X0149053Y0045100D01*
X0145552Y0046550D01*
X0141763Y0046550D01*
X0138262Y0045100D01*
X0135583Y0042420D01*
X0134132Y0038920D01*
X0134132Y0028080D01*
X0135583Y0024580D01*
X0138262Y0021900D01*
X0141763Y0020450D01*
X0145552Y0020450D01*
X0149053Y0021900D01*
X0151732Y0024580D01*
X0152938Y0027491D02*
X0154062Y0027491D01*
X0153818Y0031490D02*
X0153182Y0031490D01*
X0153182Y0035488D02*
X0153818Y0035488D01*
X0154052Y0039487D02*
X0152948Y0039487D01*
X0150668Y0043485D02*
X0156332Y0043485D01*
X0136647Y0043485D02*
X0013500Y0043485D01*
X0013500Y0039487D02*
X0134367Y0039487D01*
X0134132Y0035488D02*
X0013500Y0035488D01*
X0013500Y0031490D02*
X0134132Y0031490D01*
X0134377Y0027491D02*
X0089161Y0027491D01*
X0094695Y0023493D02*
X0136670Y0023493D01*
X0079826Y0027491D02*
X0073119Y0027491D01*
X0068245Y0027491D02*
X0061538Y0027491D01*
X0046064Y0027491D02*
X0036983Y0027491D01*
X0027648Y0027491D02*
X0023172Y0027491D01*
D22*
X0003500Y0003500D02*
X0003500Y0348500D01*
X0303500Y0348500D01*
X0303500Y0003500D01*
X0003500Y0003500D01*
M02*
